<?xml version="1.0" encoding="UTF-8" standalone="no"?>
<!-- Created with Inkscape (http://www.inkscape.org/) -->

<svg
   width="333.64725"
   height="473.53079"
   viewBox="0 0 333.64725 473.53079"
   version="1.1"
   id="svg5"
   inkscape:version="1.2 (dc2aedaf03, 2022-05-15)"
   sodipodi:docname="brackets.svg"
   xmlns:inkscape="http://www.inkscape.org/namespaces/inkscape"
   xmlns:sodipodi="http://sodipodi.sourceforge.net/DTD/sodipodi-0.dtd"
   xmlns:xlink="http://www.w3.org/1999/xlink"
   xmlns="http://www.w3.org/2000/svg"
   xmlns:svg="http://www.w3.org/2000/svg">
  <sodipodi:namedview
     id="namedview7"
     pagecolor="#ffffff"
     bordercolor="#000000"
     borderopacity="0.25"
     inkscape:showpageshadow="2"
     inkscape:pageopacity="0.0"
     inkscape:pagecheckerboard="0"
     inkscape:deskcolor="#d1d1d1"
     inkscape:document-units="px"
     showgrid="true"
     inkscape:zoom="5.6568542"
     inkscape:cx="771.80705"
     inkscape:cy="657.07898"
     inkscape:window-width="3840"
     inkscape:window-height="2050"
     inkscape:window-x="-12"
     inkscape:window-y="-12"
     inkscape:window-maximized="1"
     inkscape:current-layer="layer1">
    <inkscape:grid
       type="axonomgrid"
       id="grid300"
       spacingy="18.897638"
       units="px"
       visible="false" />
  </sodipodi:namedview>
  <defs
     id="defs2">
    <linearGradient
       inkscape:collect="always"
       id="linearGradient10178">
      <stop
         style="stop-color:#c1fa8c;stop-opacity:0.29880479;"
         offset="0"
         id="stop10174" />
      <stop
         style="stop-color:#fffed0;stop-opacity:0;"
         offset="0.48398444"
         id="stop12416" />
      <stop
         style="stop-color:#fffb96;stop-opacity:0.29282868;"
         offset="1"
         id="stop10176" />
    </linearGradient>
    <inkscape:path-effect
       effect="fillet_chamfer"
       id="path-effect7453"
       is_visible="true"
       lpeversion="1"
       nodesatellites_param="F,0,1,1,0,9.0320257,0,1 @ F,0,1,1,0,9.0320257,0,1 @ F,0,1,1,0,9.0320257,0,1 @ F,0,1,1,0,9.0320257,0,1"
       unit="px"
       method="auto"
       mode="F"
       radius="16"
       chamfer_steps="1"
       flexible="false"
       use_knot_distance="true"
       apply_no_radius="true"
       apply_with_radius="true"
       only_selected="false"
       hide_knots="false" />
    <inkscape:path-effect
       effect="fillet_chamfer"
       id="path-effect7449"
       is_visible="true"
       lpeversion="1"
       nodesatellites_param="F,0,1,1,0,9.0320257,0,1 @ F,0,1,1,0,9.0320257,0,1 @ F,0,1,1,0,9.0320257,0,1 @ F,0,1,1,0,9.0320257,0,1"
       unit="px"
       method="auto"
       mode="F"
       radius="16"
       chamfer_steps="1"
       flexible="false"
       use_knot_distance="true"
       apply_no_radius="true"
       apply_with_radius="true"
       only_selected="false"
       hide_knots="false" />
    <inkscape:path-effect
       effect="fillet_chamfer"
       id="path-effect7357"
       is_visible="true"
       lpeversion="1"
       nodesatellites_param="F,0,0,1,0,16,0,1 @ F,0,0,1,0,16,0,1 @ F,0,0,1,0,16,0,1 @ F,0,0,1,0,16,0,1"
       unit="px"
       method="auto"
       mode="F"
       radius="16"
       chamfer_steps="1"
       flexible="false"
       use_knot_distance="true"
       apply_no_radius="true"
       apply_with_radius="true"
       only_selected="false"
       hide_knots="false" />
    <inkscape:path-effect
       effect="fillet_chamfer"
       id="path-effect7353"
       is_visible="true"
       lpeversion="1"
       nodesatellites_param="F,0,1,1,0,9.0320257,0,1 @ F,0,1,1,0,9.0320257,0,1 @ F,0,1,1,0,9.0320257,0,1 @ F,0,1,1,0,9.0320257,0,1"
       unit="px"
       method="auto"
       mode="F"
       radius="16"
       chamfer_steps="1"
       flexible="false"
       use_knot_distance="true"
       apply_no_radius="true"
       apply_with_radius="true"
       only_selected="false"
       hide_knots="false" />
    <inkscape:path-effect
       effect="fillet_chamfer"
       id="path-effect7349"
       is_visible="true"
       lpeversion="1"
       nodesatellites_param="F,0,1,1,0,9.0320257,0,1 @ F,0,1,1,0,9.0320257,0,1 @ F,0,1,1,0,9.0320257,0,1 @ F,0,1,1,0,9.0320257,0,1"
       unit="px"
       method="auto"
       mode="F"
       radius="16"
       chamfer_steps="1"
       flexible="false"
       use_knot_distance="true"
       apply_no_radius="true"
       apply_with_radius="true"
       only_selected="false"
       hide_knots="false" />
    <inkscape:path-effect
       effect="fillet_chamfer"
       id="path-effect7345"
       is_visible="true"
       lpeversion="1"
       nodesatellites_param="F,0,1,1,0,9.0320257,0,1 @ F,0,1,1,0,9.0320257,0,1 @ F,0,1,1,0,9.0320257,0,1 @ F,0,1,1,0,9.0320257,0,1"
       unit="px"
       method="auto"
       mode="F"
       radius="16"
       chamfer_steps="1"
       flexible="false"
       use_knot_distance="true"
       apply_no_radius="true"
       apply_with_radius="true"
       only_selected="false"
       hide_knots="false" />
    <inkscape:path-effect
       effect="fillet_chamfer"
       id="path-effect7341"
       is_visible="true"
       lpeversion="1"
       nodesatellites_param="F,0,0,1,0,16,0,1 @ F,0,0,1,0,16,0,1 @ F,0,0,1,0,16,0,1 @ F,0,0,1,0,16,0,1"
       unit="px"
       method="auto"
       mode="F"
       radius="16"
       chamfer_steps="1"
       flexible="false"
       use_knot_distance="true"
       apply_no_radius="true"
       apply_with_radius="true"
       only_selected="false"
       hide_knots="false" />
    <inkscape:path-effect
       effect="fillet_chamfer"
       id="path-effect6838"
       is_visible="true"
       lpeversion="1"
       nodesatellites_param="F,0,1,1,0,9.0320257,0,1 @ F,0,1,1,0,9.0320257,0,1 @ F,0,1,1,0,9.0320257,0,1 @ F,0,1,1,0,9.0320257,0,1"
       unit="px"
       method="auto"
       mode="F"
       radius="16"
       chamfer_steps="1"
       flexible="false"
       use_knot_distance="true"
       apply_no_radius="true"
       apply_with_radius="true"
       only_selected="false"
       hide_knots="false" />
    <inkscape:path-effect
       effect="fillet_chamfer"
       id="path-effect6834"
       is_visible="true"
       lpeversion="1"
       nodesatellites_param="F,0,1,1,0,9.0320257,0,1 @ F,0,1,1,0,9.0320257,0,1 @ F,0,1,1,0,9.0320257,0,1 @ F,0,1,1,0,9.0320257,0,1"
       unit="px"
       method="auto"
       mode="F"
       radius="16"
       chamfer_steps="1"
       flexible="false"
       use_knot_distance="true"
       apply_no_radius="true"
       apply_with_radius="true"
       only_selected="false"
       hide_knots="false" />
    <inkscape:path-effect
       effect="fillet_chamfer"
       id="path-effect5761"
       is_visible="true"
       lpeversion="1"
       nodesatellites_param="F,0,1,1,0,9.0320257,0,1 @ F,0,1,1,0,9.0320257,0,1 @ F,0,1,1,0,9.0320257,0,1 @ F,0,1,1,0,9.0320257,0,1"
       unit="px"
       method="auto"
       mode="F"
       radius="16"
       chamfer_steps="1"
       flexible="false"
       use_knot_distance="true"
       apply_no_radius="true"
       apply_with_radius="true"
       only_selected="false"
       hide_knots="false" />
    <inkscape:path-effect
       effect="fillet_chamfer"
       id="path-effect5453"
       is_visible="true"
       lpeversion="1"
       nodesatellites_param="F,0,1,1,0,9.0320257,0,1 @ F,0,1,1,0,9.0320257,0,1 @ F,0,1,1,0,9.0320257,0,1 @ F,0,1,1,0,9.0320257,0,1"
       unit="px"
       method="auto"
       mode="F"
       radius="16"
       chamfer_steps="1"
       flexible="false"
       use_knot_distance="true"
       apply_no_radius="true"
       apply_with_radius="true"
       only_selected="false"
       hide_knots="false" />
    <inkscape:path-effect
       effect="fillet_chamfer"
       id="path-effect5447"
       is_visible="true"
       lpeversion="1"
       nodesatellites_param="F,0,0,1,0,16,0,1 @ F,0,0,1,0,16,0,1 @ F,0,0,1,0,16,0,1 @ F,0,0,1,0,16,0,1"
       unit="px"
       method="auto"
       mode="F"
       radius="16"
       chamfer_steps="1"
       flexible="false"
       use_knot_distance="true"
       apply_no_radius="true"
       apply_with_radius="true"
       only_selected="false"
       hide_knots="false" />
    <inkscape:path-effect
       effect="fillet_chamfer"
       id="path-effect5441"
       is_visible="true"
       lpeversion="1"
       nodesatellites_param="F,0,0,1,0,16,0,1 @ F,0,0,1,0,16,0,1 @ F,0,0,1,0,16,0,1 @ F,0,0,1,0,16,0,1"
       unit="px"
       method="auto"
       mode="F"
       radius="16"
       chamfer_steps="1"
       flexible="false"
       use_knot_distance="true"
       apply_no_radius="true"
       apply_with_radius="true"
       only_selected="false"
       hide_knots="false" />
    <inkscape:path-effect
       effect="fillet_chamfer"
       id="path-effect5439"
       is_visible="true"
       lpeversion="1"
       nodesatellites_param="F,0,1,1,0,9.0320257,0,1 @ F,0,1,1,0,9.0320257,0,1 @ F,0,1,1,0,9.0320257,0,1 @ F,0,1,1,0,9.0320257,0,1"
       unit="px"
       method="auto"
       mode="F"
       radius="16"
       chamfer_steps="1"
       flexible="false"
       use_knot_distance="true"
       apply_no_radius="true"
       apply_with_radius="true"
       only_selected="false"
       hide_knots="false" />
    <filter
       inkscape:collect="always"
       style="color-interpolation-filters:sRGB"
       id="filter10170"
       x="-0.015202545"
       y="-0.027169604"
       width="1.030405"
       height="1.0543392">
      <feGaussianBlur
         inkscape:collect="always"
         stdDeviation="12.181039"
         id="feGaussianBlur10172" />
    </filter>
    <linearGradient
       inkscape:collect="always"
       xlink:href="#linearGradient10178"
       id="linearGradient12420"
       x1="984"
       y1="1109"
       x2="978"
       y2="40"
       gradientUnits="userSpaceOnUse"
       gradientTransform="translate(-9,-28)" />
  </defs>
  <g
     inkscape:label="Layer 1"
     inkscape:groupmode="layer"
     id="layer1"
     transform="translate(-352.56107,511.85324)">
    <rect
       style="opacity:1;mix-blend-mode:normal;fill:url(#linearGradient12420);fill-opacity:1;fill-rule:evenodd;stroke:none;stroke-width:3.77953;stroke-linecap:square;stroke-linejoin:bevel;stroke-opacity:1;filter:url(#filter10170)"
       id="rect8400"
       width="1923"
       height="1076"
       x="4"
       y="-16" />
    <g
       id="g7956"
       inkscape:label="bracket"
       transform="matrix(0.45354244,0,0,0.45354244,239.64938,-510.89063)"
       inkscape:export-filename="bracket_logo.svg"
       inkscape:export-xdpi="96"
       inkscape:export-ydpi="96">
      <g
         id="g7534"
         inkscape:label="left">
        <path
           d="m 568.87261,901.99077 -230.32043,131.20283 1.80243,-37.06348 228.518,-131.93464 v 37.79529"
           style="fill:#696969;fill-opacity:1;stroke:#696969;stroke-width:0.994162px;stroke-linejoin:round;stroke-opacity:1"
           id="path6814"
           sodipodi:nodetypes="ccccc" />
        <path
           d="m 319.70209,1036.4823 -67.747,-39.11312 v -37.79559 l 67.747,39.11395 v 37.79476"
           style="fill:#b3b3b3;fill-opacity:1;stroke:none;stroke-width:0.994162px;stroke-linejoin:round;stroke-opacity:0.6"
           id="path6816" />
        <path
           id="path6820"
           style="fill:#696969;fill-opacity:1;fill-rule:evenodd;stroke-width:3.77953;stroke-linecap:square;stroke-linejoin:bevel"
           d="m 254.68046,992.19074 229.8436,-132.70026 a 15.779614,15.779614 179.78621 0 1 15.67741,-0.0585 l 66.55577,37.76657 a 5.0932268,5.0932268 90.153434 0 1 -0.0238,8.87289 l -236.6041,132.58896 a 15.37663,15.37663 1.1638617 0 1 -15.57259,-0.3163 l -60.00491,-36.9056 a 5.3834484,5.3834484 90.796633 0 1 0.12858,-9.24776 z"
           sodipodi:nodetypes="ccccc"
           inkscape:original-d="M 246.8585,996.70675 492.34602,854.97447 574.61269,901.65606 322.25017,1043.0758 Z"
           inkscape:path-effect="#path-effect6834" />
        <path
           d="m 253.89963,1000.7721 a 4.5396249,5.6448025 43.427008 0 1 1.444,-8.96403 v -37.79539 a 4.5396249,5.6448025 43.427008 0 0 -1.444,8.96386 z"
           style="fill:#b3b3b3;fill-opacity:1;stroke:none;stroke-width:0.994162px;stroke-linejoin:round;stroke-opacity:0.6"
           id="path6822" />
        <path
           id="path6824"
           style="fill:#b3b3b3;fill-opacity:1;fill-rule:evenodd;stroke-width:3.77953;stroke-linecap:square;stroke-linejoin:bevel"
           d="m 254.68046,954.39547 229.8436,-132.70026 a 15.754103,15.754103 179.82619 0 1 15.67118,-0.0475 l 66.63073,37.93215 a 5.1797539,5.1797539 89.81865 0 1 0.0285,8.98654 L 336.50844,1001.6375 a 15.639169,15.639169 179.99247 0 1 -15.64273,0 l -66.18525,-38.21211 a 5.2146438,5.2146438 90.000008 0 1 0,-9.03202 z"
           sodipodi:nodetypes="ccccc"
           inkscape:original-d="M 246.8585,958.91148 492.34602,817.1792 574.67519,864.04829 328.68767,1006.1556 Z"
           inkscape:path-effect="#path-effect6838" />
        <path
           id="path5443"
           style="fill:#696969;fill-opacity:1;fill-rule:evenodd;stroke-width:3.70417;stroke-linecap:square;stroke-linejoin:bevel"
           d="m 293.77189,951.5608 2e-5,-597.70696 a 9.237604,9.237604 150 0 1 13.85641,-8 l 52.48455,30.30198 a 27.712815,27.712815 60.000001 0 1 13.85641,24 l 10e-6,597.70688 a 9.2376132,9.2376132 149.99998 0 1 -13.85641,8 L 307.6283,975.56079 A 27.712785,27.712785 59.999977 0 1 293.77189,951.5608 Z"
           sodipodi:nodetypes="ccccc"
           inkscape:path-effect="#path-effect5447"
           inkscape:original-d="m 293.77189,967.5608 2e-5,-629.70696 80.19737,46.30198 10e-6,629.70688 z" />
        <path
           d="m 370.0703,1005.5126 -63.82567,-30.75007 -44.788,33.90607 65.81023,31.4272 42.98022,-34.5832"
           style="fill:#696969;fill-opacity:1;stroke:none;stroke-width:0.994162px;stroke-linejoin:round;stroke-opacity:0.6"
           id="path6706"
           sodipodi:nodetypes="ccccc" />
        <g
           id="g6400"
           transform="matrix(1,-0.21673503,0,0.9883576,-418.13437,430.47035)">
          <path
             d="m 984.00698,97.793858 -228.518,83.378002 v -38.241 l 228.518,-83.377502 v 38.2405"
             style="fill:#696969;fill-opacity:1;stroke:#696969;stroke-width:1px;stroke-linejoin:round;stroke-opacity:1"
             id="path5821" />
          <path
             d="m 734.83646,179.22955 -67.747,-54.43 V 86.558748 l 67.747,54.430802 v 38.24"
             style="fill:#696969;fill-opacity:1;stroke:none;stroke-width:1px;stroke-linejoin:round;stroke-opacity:0.6"
             id="path5825" />
          <path
             id="path3214"
             style="fill:#696969;fill-opacity:1;fill-rule:evenodd;stroke-width:3.80173;stroke-linecap:square;stroke-linejoin:bevel"
             d="M 670.47776,119.91588 898.9955,36.53818 a 16.021114,16.021114 9.3673009 0 1 15.52589,2.561191 l 67.74717,54.43074 a 5.0918733,5.0918733 99.367302 0 1 -1.44389,8.752839 l -228.51774,83.37769 a 16.021116,16.021116 9.3672998 0 1 -15.52589,-2.56119 l -67.74717,-54.43074 a 5.0918731,5.0918731 99.367299 0 1 1.44389,-8.75283 z"
             sodipodi:nodetypes="ccccc"
             inkscape:path-effect="#path-effect5439"
             inkscape:original-d="M 661.99287,123.0117 907.48039,33.442356 989.30956,99.187126 743.82204,188.75646 Z" />
          <path
             id="path5449"
             style="fill:#696969;fill-opacity:1;fill-rule:evenodd;stroke-width:3.80173;stroke-linecap:square;stroke-linejoin:bevel"
             d="M 670.47776,119.91588 898.9955,36.53818 a 16.021114,16.021114 9.3673009 0 1 15.52589,2.561191 l 67.74717,54.43074 a 5.0918733,5.0918733 99.367302 0 1 -1.44389,8.752839 l -228.51774,83.37769 a 16.021116,16.021116 9.3672998 0 1 -15.52589,-2.56119 l -67.74717,-54.43074 a 5.0918731,5.0918731 99.367299 0 1 1.44389,-8.75283 z"
             sodipodi:nodetypes="ccccc"
             inkscape:original-d="M 661.99287,123.0117 907.48039,33.442356 989.30956,99.187126 743.82204,188.75646 Z"
             inkscape:path-effect="#path-effect5453" />
          <path
             d="m 669.034,128.669 a 5.09187,5.09187 0 0 1 1.444,-8.753 V 81.6754 a 5.09187,5.09187 0 0 0 -1.444,8.7528 z"
             style="fill:#696969;fill-opacity:1;stroke:none;stroke-width:1px;stroke-linejoin:round;stroke-opacity:0.6"
             id="path5954" />
          <path
             id="path5757"
             style="fill:#b3b3b3;fill-opacity:1;fill-rule:evenodd;stroke-width:3.80173;stroke-linecap:square;stroke-linejoin:bevel"
             d="M 670.47776,81.6754 898.9955,-1.702296 a 16.021114,16.021114 9.3673009 0 1 15.52589,2.5611916 l 67.74717,54.4307394 a 5.0918732,5.0918732 99.367302 0 1 -1.44389,8.752838 L 752.30693,147.42016 a 16.021117,16.021117 9.3672994 0 1 -15.52589,-2.56119 L 669.03387,90.428238 a 5.0918729,5.0918729 99.367298 0 1 1.44389,-8.752838 z"
             sodipodi:nodetypes="ccccc"
             inkscape:original-d="M 661.99287,84.771224 907.48039,-4.7981196 989.30956,60.94665 743.82204,150.51598 Z"
             inkscape:path-effect="#path-effect5761" />
        </g>
        <path
           id="path3210"
           style="fill:#b3b3b3;fill-opacity:1;fill-rule:evenodd;stroke-width:3.77953;stroke-linecap:square;stroke-linejoin:bevel"
           d="m 248.98348,985.4676 2e-5,-610.51976 a 9.237604,9.237604 150 0 1 13.85641,-8 l 54.11635,31.2441 a 27.712815,27.712815 60.000001 0 1 13.85641,24 l 10e-6,610.51966 a 9.237615,9.237615 149.99997 0 1 -13.85641,8 l -54.11638,-31.244 a 27.712779,27.712779 59.999972 0 1 -13.85641,-24 z"
           sodipodi:nodetypes="ccccc"
           inkscape:path-effect="#path-effect5441"
           inkscape:original-d="m 248.98348,1001.4676 2e-5,-642.51976 81.82917,47.2441 10e-6,642.51966 z" />
      </g>
      <g
         id="g7797"
         transform="translate(-56.870166,38.198457)"
         inkscape:label="right">
        <path
           id="path7443"
           style="fill:#696969;fill-opacity:1;fill-rule:evenodd;stroke-width:3.77953;stroke-linecap:square;stroke-linejoin:bevel"
           d="M 726.10159,714.11982 955.94517,581.41956 a 15.643928,15.643928 180 0 1 15.64392,0 l 66.18521,38.21207 a 5.1320096,5.1320096 90.3947 0 1 -0.061,8.92383 L 801.55477,760.59709 a 15.393524,15.393524 1.1913365 0 1 -15.57682,-0.32393 l -60.00494,-36.90558 a 5.3834493,5.3834493 90.796635 0 1 0.12858,-9.24776 z"
           sodipodi:nodetypes="ccccc"
           inkscape:original-d="m 718.27963,718.63583 245.4875,-141.73228 81.82917,47.24409 -251.92497,140.85727 z"
           inkscape:path-effect="#path-effect7449" />
        <g
           id="g7684"
           style="stroke:none">
          <path
             d="M 726.102,714.12 955.945,581.42 V 543.624 L 723.477,680.575 723.4145,718.62"
             style="fill:#696969;fill-opacity:1;stroke:none;stroke-width:1px;stroke-linejoin:round;stroke-opacity:0.6"
             id="path7666"
             sodipodi:nodetypes="ccccc" />
          <path
             d="m 955.945,581.42 h 15.644 l -0.43,-37.121 -15.214,-0.675 v 37.796"
             style="fill:#000000;fill-opacity:0.3;stroke:none;stroke-width:1px;stroke-linejoin:round;stroke-opacity:0.6"
             id="path7668" />
          <path
             d="m 971.589,581.42 66.181,38.212 -8.07,-34.22 -58.541,-41.113 0.43,37.121"
             style="fill:#000000;fill-opacity:0.3;stroke:none;stroke-width:1px;stroke-linejoin:round;stroke-opacity:0.6"
             id="path7670" />
          <path
             d="m 1037.77,619.632 -0.06,8.923 -8.43,-33.42 0.42,-9.723 8.07,34.22"
             style="fill:#000000;fill-opacity:0.3;stroke:none;stroke-width:1px;stroke-linejoin:round;stroke-opacity:0.6"
             id="path7672" />
          <path
             d="m 1037.71,628.555 -8.43,-33.42 8.43,33.42"
             style="fill:#000000;fill-opacity:0.3;stroke:none;stroke-width:1px;stroke-linejoin:round;stroke-opacity:0.6"
             id="path7674"
             sodipodi:nodetypes="ccc" />
          <path
             d="m 725.973,723.368 0.129,-9.248 v -37.795 9.032 l -0.129,38.011"
             style="fill:#000000;fill-opacity:0.3;stroke:none;stroke-width:1px;stroke-linejoin:round;stroke-opacity:0.6"
             id="path7680" />
          <path
             d="m 726.102,714.12 v 0 -37.795 0 37.795"
             style="fill:#000000;fill-opacity:0.3;stroke:none;stroke-width:1px;stroke-linejoin:round;stroke-opacity:0.6"
             id="path7682" />
        </g>
        <path
           id="path7445"
           style="fill:#b3b3b3;fill-opacity:1;fill-rule:evenodd;stroke-width:3.77953;stroke-linecap:square;stroke-linejoin:bevel"
           d="M 726.10159,676.32456 955.94517,543.62429 a 14.156232,14.156232 2.538878 0 1 15.21352,0.67458 l 58.54601,41.11291 a 5.7758699,5.7758699 92.479341 0 1 -0.421,9.72285 L 807.92139,723.55238 a 15.606459,15.606459 179.94045 0 1 -15.63453,0.0163 L 726.1016,685.35658 a 5.2146405,5.2146405 89.999988 0 1 -10e-6,-9.03202 z"
           sodipodi:nodetypes="ccccc"
           inkscape:original-d="m 718.27963,680.84057 245.4875,-141.73229 73.32917,51.49409 -236.98747,137.48227 z"
           inkscape:path-effect="#path-effect7453" />
        <path
           id="path7305"
           style="fill:#696969;fill-opacity:1;fill-rule:evenodd;stroke-width:3.70417;stroke-linecap:square;stroke-linejoin:bevel"
           d="m 961.27513,573.71532 2e-5,-597.706964 a 9.2376021,9.2376021 150.00001 0 1 13.8564,-7.999997 l 52.48455,30.301981 a 27.712821,27.712821 60.000007 0 1 13.8564,24.000003 V 620.01724 a 9.2376096,9.2376096 149.99999 0 1 -13.8564,8.00001 l -52.48456,-30.30194 a 27.712796,27.712796 59.999987 0 1 -13.85641,-23.99999 z"
           sodipodi:nodetypes="ccccc"
           inkscape:path-effect="#path-effect7341"
           inkscape:original-d="m 961.27513,589.71532 2e-5,-629.706964 80.19735,46.3019873 V 636.01724 Z" />
        <path
           id="path7323"
           style="fill:#b3b3b3;fill-opacity:1;fill-rule:evenodd;stroke-width:3.64959;stroke-linecap:square;stroke-linejoin:bevel"
           d="m 916.48672,564.63291 2e-5,-567.098629 a 9.5577848,9.5577848 149.14753 0 1 14.08829,-8.415803 l 53.65259,28.882973 a 27.015835,27.015835 58.930996 0 1 14.20922,23.58374 l 4.25816,563.349499 a 10.10349,10.10349 147.29583 0 1 -14.37711,9.23139 l -57.33316,-26.76502 a 25.12693,25.12693 57.512363 0 1 -14.49801,-22.76815 z"
           sodipodi:nodetypes="ccccc"
           inkscape:path-effect="#path-effect7357"
           inkscape:original-d="m 916.48672,580.63291 2e-5,-599.098629 81.82917,44.051367 4.49999,595.348582 z" />
        <g
           id="g7321"
           transform="matrix(1,-0.21673503,0,0.9883576,50.222906,158.73103)">
          <path
             d="m 984.00698,97.793858 -228.518,83.378002 v -38.241 l 228.518,-83.377502 v 38.2405"
             style="fill:#696969;fill-opacity:1;stroke:#696969;stroke-width:1px;stroke-linejoin:round;stroke-opacity:1"
             id="path7309" />
          <path
             d="m 734.83646,179.22955 -67.747,-54.43 V 86.558748 l 67.747,54.430802 v 38.24"
             style="fill:#696969;fill-opacity:1;stroke:none;stroke-width:1px;stroke-linejoin:round;stroke-opacity:0.6"
             id="path7311" />
          <path
             id="path7313"
             style="fill:#696969;fill-opacity:1;fill-rule:evenodd;stroke-width:3.80173;stroke-linecap:square;stroke-linejoin:bevel"
             d="M 670.47776,119.91588 898.9955,36.53818 a 16.021114,16.021114 9.3673009 0 1 15.52589,2.561191 l 67.74717,54.43074 a 5.0918733,5.0918733 99.367302 0 1 -1.44389,8.752839 l -228.51774,83.37769 a 16.021116,16.021116 9.3672998 0 1 -15.52589,-2.56119 l -67.74717,-54.43074 a 5.0918731,5.0918731 99.367299 0 1 1.44389,-8.75283 z"
             sodipodi:nodetypes="ccccc"
             inkscape:path-effect="#path-effect7345"
             inkscape:original-d="M 661.99287,123.0117 907.48039,33.442356 989.30956,99.187126 743.82204,188.75646 Z" />
          <path
             id="path7315"
             style="fill:#696969;fill-opacity:1;fill-rule:evenodd;stroke-width:3.80173;stroke-linecap:square;stroke-linejoin:bevel"
             d="M 670.47776,119.91588 898.9955,36.53818 a 16.021114,16.021114 9.3673009 0 1 15.52589,2.561191 l 67.74717,54.43074 a 5.0918733,5.0918733 99.367302 0 1 -1.44389,8.752839 l -228.51774,83.37769 a 16.021116,16.021116 9.3672998 0 1 -15.52589,-2.56119 l -67.74717,-54.43074 a 5.0918731,5.0918731 99.367299 0 1 1.44389,-8.75283 z"
             sodipodi:nodetypes="ccccc"
             inkscape:original-d="M 661.99287,123.0117 907.48039,33.442356 989.30956,99.187126 743.82204,188.75646 Z"
             inkscape:path-effect="#path-effect7349" />
          <path
             d="m 669.034,128.669 a 5.09187,5.09187 0 0 1 1.444,-8.753 V 81.6754 a 5.09187,5.09187 0 0 0 -1.444,8.7528 z"
             style="fill:#696969;fill-opacity:1;stroke:none;stroke-width:1px;stroke-linejoin:round;stroke-opacity:0.6"
             id="path7317" />
          <path
             id="path7319"
             style="fill:#b3b3b3;fill-opacity:1;fill-rule:evenodd;stroke-width:3.80173;stroke-linecap:square;stroke-linejoin:bevel"
             d="M 670.47776,81.6754 898.9955,-1.702296 a 16.021114,16.021114 9.3673009 0 1 15.52589,2.5611916 l 67.74717,54.4307394 a 5.0918732,5.0918732 99.367302 0 1 -1.44389,8.752838 L 752.30693,147.42016 a 16.021117,16.021117 9.3672994 0 1 -15.52589,-2.56119 L 669.03387,90.428238 a 5.0918729,5.0918729 99.367298 0 1 1.44389,-8.752838 z"
             sodipodi:nodetypes="ccccc"
             inkscape:original-d="M 661.99287,84.771224 907.48039,-4.7981196 989.30956,60.94665 743.82204,150.51598 Z"
             inkscape:path-effect="#path-effect7353" />
        </g>
      </g>
    </g>
  </g>
</svg>
