<?xml version="1.0" encoding="UTF-8"?>
<!-- Created with Inkscape (http://www.inkscape.org/) -->
<svg width="176.15" height="250" version="1.1" viewBox="0 0 176.15 250" xmlns="http://www.w3.org/2000/svg">
 <g transform="translate(-352.56 511.85)">
  <g transform="matrix(.23945 0 0 .23945 292.95 -511.35)">
   <g>
    <path d="m568.87 901.99-230.32 131.2 1.8024-37.063 228.52-131.93v37.795" fill="#696969" stroke="#696969" stroke-linejoin="round" stroke-width=".99416px"/>
    <path d="m319.7 1036.5-67.747-39.113v-37.796l67.747 39.114v37.795" fill="#b3b3b3"/>
    <path d="m254.68 992.19 229.84-132.7a15.78 15.78 179.79 0 1 15.677-0.0585l66.556 37.767a5.0932 5.0932 90.153 0 1-0.0238 8.8729l-236.6 132.59a15.377 15.377 1.1639 0 1-15.573-0.3163l-60.005-36.906a5.3834 5.3834 90.797 0 1 0.12858-9.2478z" fill="#696969" fill-rule="evenodd" stroke-linecap="square" stroke-linejoin="bevel" stroke-width="3.7795"/>
    <path d="m253.9 1000.8a4.5396 5.6448 43.427 0 1 1.444-8.964v-37.795a4.5396 5.6448 43.427 0 0-1.444 8.9639z" fill="#b3b3b3"/>
    <path d="m254.68 954.4 229.84-132.7a15.754 15.754 179.83 0 1 15.671-0.0475l66.631 37.932a5.1798 5.1798 89.819 0 1 0.0285 8.9865l-230.35 133.07a15.639 15.639 179.99 0 1-15.643 0l-66.185-38.212a5.2146 5.2146 90 0 1 0-9.032z" fill="#b3b3b3" fill-rule="evenodd" stroke-linecap="square" stroke-linejoin="bevel" stroke-width="3.7795"/>
    <path d="m293.77 951.56 2e-5 -597.71a9.2376 9.2376 150 0 1 13.856-8l52.485 30.302a27.713 27.713 60 0 1 13.856 24l1e-5 597.71a9.2376 9.2376 150 0 1-13.856 8l-52.485-30.302a27.713 27.713 60 0 1-13.856-24z" fill="#696969" fill-rule="evenodd" stroke-linecap="square" stroke-linejoin="bevel" stroke-width="3.7042"/>
    <path d="m370.07 1005.5-63.826-30.75-44.788 33.906 65.81 31.427 42.98-34.583" fill="#696969"/>
    <g transform="matrix(1 -.21674 0 .98836 -418.13 430.47)">
     <path d="m984.01 97.794-228.52 83.378v-38.241l228.52-83.378v38.24" fill="#696969" stroke="#696969" stroke-linejoin="round" stroke-width="1px"/>
     <path d="m734.84 179.23-67.747-54.43v-38.241l67.747 54.431v38.24" fill="#696969"/>
     <path d="m670.48 119.92 228.52-83.378a16.021 16.021 9.3673 0 1 15.526 2.5612l67.747 54.431a5.0919 5.0919 99.367 0 1-1.4439 8.7528l-228.52 83.378a16.021 16.021 9.3673 0 1-15.526-2.5612l-67.747-54.431a5.0919 5.0919 99.367 0 1 1.4439-8.7528z" fill="#696969" fill-rule="evenodd" stroke-linecap="square" stroke-linejoin="bevel" stroke-width="3.8017"/>
     <path d="m670.48 119.92 228.52-83.378a16.021 16.021 9.3673 0 1 15.526 2.5612l67.747 54.431a5.0919 5.0919 99.367 0 1-1.4439 8.7528l-228.52 83.378a16.021 16.021 9.3673 0 1-15.526-2.5612l-67.747-54.431a5.0919 5.0919 99.367 0 1 1.4439-8.7528z" fill="#696969" fill-rule="evenodd" stroke-linecap="square" stroke-linejoin="bevel" stroke-width="3.8017"/>
     <path d="m669.03 128.67a5.0919 5.0919 0 0 1 1.444-8.753v-38.241a5.0919 5.0919 0 0 0-1.444 8.7528z" fill="#696969"/>
     <path d="m670.48 81.675 228.52-83.378a16.021 16.021 9.3673 0 1 15.526 2.5612l67.747 54.431a5.0919 5.0919 99.367 0 1-1.4439 8.7528l-228.52 83.378a16.021 16.021 9.3673 0 1-15.526-2.5612l-67.747-54.431a5.0919 5.0919 99.367 0 1 1.4439-8.7528z" fill="#b3b3b3" fill-rule="evenodd" stroke-linecap="square" stroke-linejoin="bevel" stroke-width="3.8017"/>
    </g>
    <path d="m248.98 985.47 2e-5 -610.52a9.2376 9.2376 150 0 1 13.856-8l54.116 31.244a27.713 27.713 60 0 1 13.856 24l1e-5 610.52a9.2376 9.2376 150 0 1-13.856 8l-54.116-31.244a27.713 27.713 60 0 1-13.856-24z" fill="#b3b3b3" fill-rule="evenodd" stroke-linecap="square" stroke-linejoin="bevel" stroke-width="3.7795"/>
   </g>
   <g transform="translate(-56.87 38.198)">
    <path d="m726.1 714.12 229.84-132.7a15.644 15.644 180 0 1 15.644 0l66.185 38.212a5.132 5.132 90.395 0 1-0.061 8.9238l-236.16 132.04a15.394 15.394 1.1913 0 1-15.577-0.32393l-60.005-36.906a5.3834 5.3834 90.797 0 1 0.12858-9.2478z" fill="#696969" fill-rule="evenodd" stroke-linecap="square" stroke-linejoin="bevel" stroke-width="3.7795"/>
    <path d="m726.1 714.12 229.84-132.7v-37.796l-232.47 136.95-0.0625 38.045" fill="#696969"/>
    <path d="m955.94 581.42h15.644l-0.43-37.121-15.214-0.675v37.796" fill-opacity=".3"/>
    <path d="m971.59 581.42 66.181 38.212-8.07-34.22-58.541-41.113 0.43 37.121" fill-opacity=".3"/>
    <path d="m1037.8 619.63-0.06 8.923-8.43-33.42 0.42-9.723 8.07 34.22" fill-opacity=".3"/>
    <path d="m1037.7 628.56-8.43-33.42 8.43 33.42" fill-opacity=".3"/>
    <path d="m725.97 723.37 0.129-9.248v-37.795 9.032l-0.129 38.011" fill-opacity=".3"/>
    <path d="m726.1 714.12v-37.795 37.795" fill-opacity=".3"/>
    <path d="m726.1 676.32 229.84-132.7a14.156 14.156 2.5389 0 1 15.214 0.67458l58.546 41.113a5.7759 5.7759 92.479 0 1-0.421 9.7228l-221.36 128.42a15.606 15.606 179.94 0 1-15.635 0.0163l-66.185-38.212a5.2146 5.2146 90 0 1-1e-5 -9.032z" fill="#b3b3b3" fill-rule="evenodd" stroke-linecap="square" stroke-linejoin="bevel" stroke-width="3.7795"/>
    <path d="m961.28 573.72 2e-5 -597.71a9.2376 9.2376 150 0 1 13.856-8l52.485 30.302a27.713 27.713 60 0 1 13.856 24v597.71a9.2376 9.2376 150 0 1-13.856 8l-52.485-30.302a27.713 27.713 60 0 1-13.856-24z" fill="#696969" fill-rule="evenodd" stroke-linecap="square" stroke-linejoin="bevel" stroke-width="3.7042"/>
    <path d="m916.49 564.63 2e-5 -567.1a9.5578 9.5578 149.15 0 1 14.088-8.4158l53.653 28.883a27.016 27.016 58.931 0 1 14.209 23.584l4.2582 563.35a10.103 10.103 147.3 0 1-14.377 9.2314l-57.333-26.765a25.127 25.127 57.512 0 1-14.498-22.768z" fill="#b3b3b3" fill-rule="evenodd" stroke-linecap="square" stroke-linejoin="bevel" stroke-width="3.6496"/>
    <g transform="matrix(1 -.21674 0 .98836 50.223 158.73)">
     <path d="m984.01 97.794-228.52 83.378v-38.241l228.52-83.378v38.24" fill="#696969" stroke="#696969" stroke-linejoin="round" stroke-width="1px"/>
     <path d="m734.84 179.23-67.747-54.43v-38.241l67.747 54.431v38.24" fill="#696969"/>
     <path d="m670.48 119.92 228.52-83.378a16.021 16.021 9.3673 0 1 15.526 2.5612l67.747 54.431a5.0919 5.0919 99.367 0 1-1.4439 8.7528l-228.52 83.378a16.021 16.021 9.3673 0 1-15.526-2.5612l-67.747-54.431a5.0919 5.0919 99.367 0 1 1.4439-8.7528z" fill="#696969" fill-rule="evenodd" stroke-linecap="square" stroke-linejoin="bevel" stroke-width="3.8017"/>
     <path d="m670.48 119.92 228.52-83.378a16.021 16.021 9.3673 0 1 15.526 2.5612l67.747 54.431a5.0919 5.0919 99.367 0 1-1.4439 8.7528l-228.52 83.378a16.021 16.021 9.3673 0 1-15.526-2.5612l-67.747-54.431a5.0919 5.0919 99.367 0 1 1.4439-8.7528z" fill="#696969" fill-rule="evenodd" stroke-linecap="square" stroke-linejoin="bevel" stroke-width="3.8017"/>
     <path d="m669.03 128.67a5.0919 5.0919 0 0 1 1.444-8.753v-38.241a5.0919 5.0919 0 0 0-1.444 8.7528z" fill="#696969"/>
     <path d="m670.48 81.675 228.52-83.378a16.021 16.021 9.3673 0 1 15.526 2.5612l67.747 54.431a5.0919 5.0919 99.367 0 1-1.4439 8.7528l-228.52 83.378a16.021 16.021 9.3673 0 1-15.526-2.5612l-67.747-54.431a5.0919 5.0919 99.367 0 1 1.4439-8.7528z" fill="#b3b3b3" fill-rule="evenodd" stroke-linecap="square" stroke-linejoin="bevel" stroke-width="3.8017"/>
    </g>
   </g>
  </g>
 </g>
</svg>
