{
    "asset" : {
        "generator" : "Khronos glTF Blender I/O v3.4.49",
        "version" : "2.0"
    },
    "extensionsUsed" : [
        "KHR_materials_specular",
        "KHR_materials_ior"
    ],
    "scene" : 0,
    "scenes" : [
        {
            "name" : "Scene",
            "nodes" : [
                0
            ]
        }
    ],
    "nodes" : [
        {
            "mesh" : 0,
            "name" : "trophy"
        }
    ],
    "materials" : [
        {
            "doubleSided" : true,
            "extensions" : {
                "KHR_materials_specular" : {
                    "specularColorFactor" : [
                        0.948543059910952,
                        0.948543059910952,
                        0.948543059910952
                    ]
                },
                "KHR_materials_ior" : {
                    "ior" : 1.4500000476837158
                }
            },
            "name" : "Material.004",
            "pbrMetallicRoughness" : {
                "baseColorFactor" : [
                    0.010959320701658726,
                    0.010959320701658726,
                    0.010959320701658726,
                    1
                ],
                "metallicFactor" : 0,
                "roughnessFactor" : 0.20000000298023224
            }
        },
        {
            "doubleSided" : true,
            "name" : "gold",
            "pbrMetallicRoughness" : {
                "baseColorFactor" : [
                    1,
                    0.6795420050621033,
                    0,
                    1
                ],
                "roughnessFactor" : 0.04999987408518791
            }
        }
    ],
    "meshes" : [
        {
            "name" : "Cube",
            "primitives" : [
                {
                    "attributes" : {
                        "POSITION" : 0,
                        "TEXCOORD_0" : 1,
                        "NORMAL" : 2
                    },
                    "indices" : 3,
                    "material" : 0
                },
                {
                    "attributes" : {
                        "POSITION" : 4,
                        "TEXCOORD_0" : 5,
                        "NORMAL" : 6
                    },
                    "indices" : 7,
                    "material" : 1
                }
            ]
        }
    ],
    "accessors" : [
        {
            "bufferView" : 0,
            "componentType" : 5126,
            "count" : 3371,
            "max" : [
                0.11118210107088089,
                -0.3449901044368744,
                0.08860662579536438
            ],
            "min" : [
                -0.1111820861697197,
                -0.4555143117904663,
                -0.08698298782110214
            ],
            "type" : "VEC3"
        },
        {
            "bufferView" : 1,
            "componentType" : 5126,
            "count" : 3371,
            "type" : "VEC2"
        },
        {
            "bufferView" : 2,
            "componentType" : 5126,
            "count" : 3371,
            "type" : "VEC3"
        },
        {
            "bufferView" : 3,
            "componentType" : 5123,
            "count" : 18240,
            "type" : "SCALAR"
        },
        {
            "bufferView" : 4,
            "componentType" : 5126,
            "count" : 40163,
            "max" : [
                0.32522228360176086,
                0.18651054799556732,
                0.20776110887527466
            ],
            "min" : [
                -0.3252224028110504,
                -0.44461628794670105,
                -0.20776116847991943
            ],
            "type" : "VEC3"
        },
        {
            "bufferView" : 5,
            "componentType" : 5126,
            "count" : 40163,
            "type" : "VEC2"
        },
        {
            "bufferView" : 6,
            "componentType" : 5126,
            "count" : 40163,
            "type" : "VEC3"
        },
        {
            "bufferView" : 7,
            "componentType" : 5123,
            "count" : 220008,
            "type" : "SCALAR"
        }
    ],
    "bufferViews" : [
        {
            "buffer" : 0,
            "byteLength" : 40452,
            "byteOffset" : 0,
            "target" : 34962
        },
        {
            "buffer" : 0,
            "byteLength" : 26968,
            "byteOffset" : 40452,
            "target" : 34962
        },
        {
            "buffer" : 0,
            "byteLength" : 40452,
            "byteOffset" : 67420,
            "target" : 34962
        },
        {
            "buffer" : 0,
            "byteLength" : 36480,
            "byteOffset" : 107872,
            "target" : 34963
        },
        {
            "buffer" : 0,
            "byteLength" : 481956,
            "byteOffset" : 144352,
            "target" : 34962
        },
        {
            "buffer" : 0,
            "byteLength" : 321304,
            "byteOffset" : 626308,
            "target" : 34962
        },
        {
            "buffer" : 0,
            "byteLength" : 481956,
            "byteOffset" : 947612,
            "target" : 34962
        },
        {
            "buffer" : 0,
            "byteLength" : 440016,
            "byteOffset" : 1429568,
            "target" : 34963
        }
    ],
    "buffers" : [
        {
            "byteLength" : 1869584,
            "uri" : "trophy.bin"
        }
    ]
}
